<?xml version="1.0" encoding="UTF-8" standalone="no"?>
<svg width="800" height="800" viewBox="0 0 800 800" xmlns="http://www.w3.org/2000/svg">
  <style>
    .line {
      fill: none;
      stroke: #000;
      stroke-width: 1.5;
      stroke-linecap: round;
      stroke-linejoin: round;
    }
    .background {
      fill: white;
    }
  </style>
  
  <!-- Background rectangle -->
  <rect class="background" x="0" y="0" width="800" height="800" />
  
  <!-- Facial features - simplified line art representation -->
  <g class="line">
    <!-- Face outline -->
    <path d="M400,150 C500,150 550,250 550,350 C550,450 500,600 400,650 C300,600 250,450 250,350 C250,250 300,150 400,150 Z" />
    
    <!-- Eyes -->
    <path d="M340,310 C350,300 370,300 380,310 C370,320 350,320 340,310 Z" />
    <path d="M460,310 C470,300 490,300 500,310 C490,320 470,320 460,310 Z" />
    
    <!-- Nose -->
    <path d="M400,350 C405,370 410,390 405,410 C400,420 390,420 385,410" />
    
    <!-- Mouth -->
    <path d="M350,480 C370,500 430,500 450,480" />
    
    <!-- Eyebrows -->
    <path d="M325,280 C345,270 375,270 395,280" />
    <path d="M445,280 C465,270 495,270 515,280" />
    
    <!-- Hair -->
    <path d="M250,300 C240,250 260,180 300,140 C340,100 380,80 450,90 C520,100 550,160 560,220 C570,280 560,320 550,350" />
    <path d="M300,140 C320,120 340,110 360,100 C380,90 410,85 450,90" />
    <path d="M340,100 C360,95 380,90 410,95" />
    
    <!-- Ears -->
    <path d="M250,350 C240,370 245,390 255,410" />
    <path d="M550,350 C560,370 555,390 545,410" />
    
    <!-- Beard stubble - simplified -->
    <path d="M350,500 C360,530 380,550 400,560 C420,550 440,530 450,500" />
    <path d="M320,450 C310,470 300,490 310,520" />
    <path d="M480,450 C490,470 500,490 490,520" />
    
    <!-- Neck -->
    <path d="M350,620 C370,640 430,640 450,620" />
    <path d="M350,620 C340,580 330,540 350,500" />
    <path d="M450,620 C460,580 470,540 450,500" />
  </g>
</svg>